<svg width="89" height="23" viewBox="0 0 89 23" fill="none" xmlns="http://www.w3.org/2000/svg">
<path d="M0.0667804 18.2747C1.99845 18.2747 5.2518 18.2747 8.60681 18.2747C8.60681 16.648 8.60681 14.818 8.70848 14.0047C9.42015 13.903 11.5552 13.903 12.4702 14.0047C12.4702 15.0213 12.4702 16.7497 12.4702 18.2747C16.4352 18.2747 19.9935 18.2747 21.1119 18.2747C21.2135 19.1897 21.2135 20.4097 21.1119 21.4264C18.9769 21.528 3.01512 21.528 0.168447 21.4264C-0.0348866 20.5114 -0.0348866 19.1897 0.0667804 18.2747ZM1.38845 0.991289C3.72679 0.889622 17.0452 0.889622 19.4852 0.991289C19.5869 1.90629 19.5869 3.4313 19.4852 4.3463C17.7568 4.3463 6.98014 4.3463 5.15013 4.3463C5.15013 5.46464 5.15013 8.31132 5.15013 9.32799C7.08181 9.32799 18.1635 9.32799 19.8919 9.32799C19.9935 10.243 19.9935 11.8697 19.8919 12.5813C17.8585 12.683 3.72679 12.683 1.28678 12.5813C1.18512 9.73465 1.28678 3.7363 1.38845 0.991289Z" fill="black"/>
<path d="M22.9419 0.482918C25.2803 0.381251 32.702 0.381251 35.142 0.482918C35.2436 1.39792 35.2436 2.61793 35.142 3.53293C33.4136 3.53293 28.432 3.53293 26.602 3.53293C26.602 4.65127 26.602 6.37961 26.602 7.39628C28.5336 7.39628 34.3286 7.39628 36.1587 7.39628C36.2603 8.31128 36.2603 9.73462 36.1587 10.4463C34.1253 10.548 25.0769 10.548 22.9419 10.4463C22.7386 7.70128 22.7386 3.3296 22.9419 0.482918ZM23.7553 12.683C25.2803 12.5813 41.242 12.5813 41.852 12.683C41.9537 14.6146 41.9537 20.308 41.852 22.138C40.2253 22.2397 25.5853 22.3413 23.7553 22.138C23.6536 19.393 23.6536 15.123 23.7553 12.683ZM38.2937 19.088C38.2937 18.3763 38.2937 16.648 38.2937 15.8346C36.972 15.733 28.9403 15.8346 27.3136 15.8346C27.3136 16.5463 27.212 18.173 27.3136 19.088C28.432 19.088 37.277 19.088 38.2937 19.088ZM38.2937 0.0762503C39.0053 -0.0254168 41.0387 -0.0254168 41.9537 0.0762503C41.9537 0.991254 41.9537 2.31293 41.9537 3.73626C42.8687 3.73626 43.5803 3.73626 44.0887 3.73626C44.1904 4.65127 44.1904 6.07461 44.0887 6.98961C43.682 6.98961 42.9703 7.09128 41.9537 7.09128C41.9537 8.92128 41.9537 10.548 41.9537 11.463C41.242 11.5646 39.2087 11.5646 38.2937 11.463C38.192 9.53129 38.192 1.90626 38.2937 0.0762503Z" fill="black"/>
<path d="M44.902 18.2747C46.8337 18.2747 50.0871 18.2747 53.5437 18.2747C53.5437 16.648 53.5437 14.818 53.5437 14.0047C54.2554 13.903 56.3904 13.903 57.3054 14.0047C57.3054 15.0213 57.3054 16.7497 57.3054 18.2747C61.2704 18.2747 64.8288 18.2747 65.9471 18.2747C66.0488 19.1897 66.0488 20.4097 65.9471 21.4264C63.8121 21.528 47.8504 21.528 45.0037 21.4264C44.8004 20.5114 44.8004 19.1897 44.902 18.2747ZM46.2237 0.991289C48.5621 0.889622 61.8804 0.889622 64.3204 0.991289C64.4221 1.90629 64.4221 3.4313 64.3204 4.3463C62.5921 4.3463 51.8154 4.3463 49.9854 4.3463C49.9854 5.46464 49.9854 8.31132 49.9854 9.32799C51.9171 9.32799 62.9988 9.32799 64.7271 9.32799C64.8288 10.243 64.8288 11.8697 64.7271 12.5813C62.6938 12.683 48.5621 12.683 46.122 12.5813C46.122 9.73465 46.122 3.7363 46.2237 0.991289Z" fill="black"/>
<path d="M67.777 0.482918C70.1153 0.381251 77.537 0.381251 79.977 0.482918C80.0787 1.39792 80.0787 2.61793 79.977 3.53293C78.2487 3.53293 73.267 3.53293 71.437 3.53293C71.437 4.65127 71.437 6.37961 71.437 7.39628C73.3687 7.39628 79.1637 7.39628 80.9937 7.39628C81.0954 8.31128 81.0954 9.73462 80.9937 10.4463C78.9604 10.548 70.0137 10.548 67.777 10.4463C67.6753 7.70128 67.6753 3.3296 67.777 0.482918ZM68.692 12.683C70.217 12.5813 86.1787 12.5813 86.7887 12.683C86.8904 14.6146 86.8904 20.308 86.7887 22.138C85.1621 22.2397 70.522 22.3413 68.692 22.138C68.4887 19.393 68.5903 15.123 68.692 12.683ZM83.2304 19.088C83.3321 18.3763 83.3321 16.648 83.2304 15.8346C81.9087 15.733 73.877 15.8346 72.2503 15.8346C72.1487 16.5463 72.1487 18.173 72.2503 19.088C73.3687 19.088 82.2137 19.088 83.2304 19.088ZM83.1287 0.0762503C83.8404 -0.0254168 85.8737 -0.0254168 86.7887 0.0762503C86.7887 0.991254 86.7887 2.31293 86.7887 3.73626C87.7037 3.73626 88.4154 3.73626 88.9237 3.73626C89.0254 4.65127 89.0254 6.07461 88.9237 6.98961C88.5171 6.98961 87.8054 7.09128 86.7887 7.09128C86.7887 8.92128 86.7887 10.548 86.6871 11.463C85.9754 11.5646 83.9421 11.5646 83.0271 11.463C83.0271 9.53129 83.0271 1.90626 83.1287 0.0762503Z" fill="black"/>
</svg>
