<svg width="48" height="48" viewBox="0 0 48 48" fill="none" xmlns="http://www.w3.org/2000/svg">
<path d="M41.5 6.5H6.5C5.11929 6.5 4 7.61929 4 9C4 10.3807 5.11929 11.5 6.5 11.5H41.5C42.8807 11.5 44 10.3807 44 9C44 7.61929 42.8807 6.5 41.5 6.5Z" fill="black"/>
<path d="M41.5 21.5H6.5C5.11929 21.5 4 22.6193 4 24C4 25.3807 5.11929 26.5 6.5 26.5H41.5C42.8807 26.5 44 25.3807 44 24C44 22.6193 42.8807 21.5 41.5 21.5Z" fill="black"/>
<path d="M41.5 36.5H6.5C5.11929 36.5 4 37.6193 4 39C4 40.3807 5.11929 41.5 6.5 41.5H41.5C42.8807 41.5 44 40.3807 44 39C44 37.6193 42.8807 36.5 41.5 36.5Z" fill="black"/>
</svg>
