<svg width="128" height="128" viewBox="0 0 128 128" fill="none" xmlns="http://www.w3.org/2000/svg">
<path fill-rule="evenodd" clip-rule="evenodd" d="M109 0C103.5 0 99 4.5 99 10V118C99 123.5 103.5 128 109 128C114.5 128 119 123.5 119 118V80.9901C124.4 77.4901 128 71.4901 128 64.5901C128 57.6901 124.4 51.4901 119 48.0901V10C119 4.5 114.5 0 109 0ZM42.9 94H37V123C37 125.8 34.8 128 32 128H18C15.2 128 13 125.8 13 123V93.8686C5.64969 92.8943 0 86.6217 0 79V49C0 40.7 6.7 34 15 34H42.9C45 34 47 33.6 48.9 32.8L92 14V114L48.9 95.2C47 94.4 45 94 42.9 94Z" fill="black"/>
</svg>
