<svg width="48" height="48" viewBox="0 0 48 48" fill="none" xmlns="http://www.w3.org/2000/svg">
<mask id="mask0_5_531" style="mask-type:luminance" maskUnits="userSpaceOnUse" x="4" y="4" width="40" height="40">
<path d="M44 4H4V44H44V4Z" fill="white"/>
</mask>
<g mask="url(#mask0_5_531)">
<path d="M43.7117 23.9938C43.7117 34.9318 34.7314 43.9876 23.8541 43.9876C12.996 43.9876 4 34.9318 4 23.9938C4 13.0399 12.9803 4 23.8384 4C34.7156 4 43.7117 13.0399 43.7117 23.9938ZM27.8662 15.6034L24.0744 21.2898H23.9575L20.0941 15.5841C19.5325 14.7677 19.0893 14.4742 18.299 14.4742C17.2872 14.4742 16.4896 15.2353 16.4896 16.2015C16.4896 16.7094 16.6167 17.0606 17.0058 17.5789L21.4904 23.7592L16.7625 30.2852C16.4399 30.7401 16.3127 31.0912 16.3127 31.5673C16.3127 32.5143 17.0438 33.2153 18.0557 33.2153C18.8145 33.2153 19.2104 32.9343 19.8193 32.0702L23.7491 26.3803H23.8503L27.7367 32.0702C28.3125 32.9273 28.7504 33.2153 29.5003 33.2153C30.5594 33.2153 31.3255 32.5143 31.3255 31.5004C31.3255 31.0243 31.1791 30.6607 30.8408 30.2218L26.1794 23.8385L30.8723 17.4325C31.2298 16.9776 31.357 16.5789 31.357 16.138C31.357 15.1877 30.6066 14.4742 29.5949 14.4742C28.8449 14.4742 28.3791 14.7781 27.8662 15.6034Z" fill="black"/>
</g>
</svg>
