<svg width="128" height="128" viewBox="0 0 128 128" fill="none" xmlns="http://www.w3.org/2000/svg">
<path fill-rule="evenodd" clip-rule="evenodd" d="M0 15C0 6.71573 6.71573 0 15 0H113C121.284 0 128 6.71573 128 15V100C128 108.284 121.284 115 113 115V118C113 123.523 108.523 128 103 128C97.4771 128 93 123.523 93 118V115H35V118C35 123.523 30.5228 128 25 128C19.4772 128 15 123.523 15 118V115C6.71573 115 0 108.284 0 100V15ZM18 23C15.2386 23 13 25.2386 13 28V71C13 73.7614 15.2386 76 18 76H110C112.761 76 115 73.7614 115 71V28C115 25.2386 112.761 23 110 23H18ZM18 89C15.2386 89 13 91.2386 13 94V97C13 99.7614 15.2386 102 18 102H32C34.7614 102 37 99.7614 37 97V94C37 91.2386 34.7614 89 32 89H18ZM91 94C91 91.2386 93.2386 89 96 89H110C112.761 89 115 91.2386 115 94V97C115 99.7614 112.761 102 110 102H96C93.2386 102 91 99.7614 91 97V94Z" fill="black"/>
</svg>
