<svg width="15" height="20" viewBox="0 0 15 20" fill="none" xmlns="http://www.w3.org/2000/svg">
<g clip-path="url(#clip0_2144_3133)">
<path d="M0 9.99433C0 10.3762 0.137369 10.6998 0.446051 11.0018L9.32709 19.6106C9.57608 19.8667 9.88614 19.9908 10.2541 19.9908C10.9981 19.9908 11.587 19.4182 11.587 18.6867C11.587 18.318 11.4289 17.9943 11.1769 17.7394L3.16747 9.9923L11.1769 2.2493C11.4309 1.9923 11.587 1.66145 11.587 1.30396C11.587 0.570455 10.9981 0 10.2541 0C9.88408 0 9.57608 0.123983 9.32709 0.370818L0.446051 8.98689C0.13942 9.27957 0.00205022 9.61042 0 9.99433Z" fill="black"/>
</g>
<defs>
<clipPath id="clip0_2144_3133">
<rect width="15" height="20" fill="white"/>
</clipPath>
</defs>
</svg>
