<svg width="128" height="128" viewBox="0 0 128 128" fill="none" xmlns="http://www.w3.org/2000/svg">
<path fill-rule="evenodd" clip-rule="evenodd" d="M0 15C0 6.71573 6.71573 0 15 0H113C121.284 0 128 6.71573 128 15V113C128 121.284 121.284 128 113 128H15C6.71573 128 0 121.284 0 113V15ZM87.4432 30.4546L22.3019 13H110C112.761 13 115 15.2386 115 18V110C115 112.761 112.761 115 110 115H91.14V35.6022C91.291 33.2719 89.785 31.082 87.4432 30.4546ZM79.57 82.14C83.1985 82.14 86.14 79.1985 86.14 75.57C86.14 71.9415 83.1985 69 79.57 69C75.9415 69 73 71.9415 73 75.57C73 79.1985 75.9415 82.14 79.57 82.14Z" fill="black"/>
<path fill-rule="evenodd" clip-rule="evenodd" d="M0 15C0 6.71573 6.71573 0 15 0H113C121.284 0 128 6.71573 128 15V113C128 121.284 121.284 128 113 128H15C6.71573 128 0 121.284 0 113V15ZM87.4432 30.4546L22.3019 13H110C112.761 13 115 15.2386 115 18V110C115 112.761 112.761 115 110 115H91.14V35.6022C91.291 33.2719 89.785 31.082 87.4432 30.4546ZM79.57 82.14C83.1985 82.14 86.14 79.1985 86.14 75.57C86.14 71.9415 83.1985 69 79.57 69C75.9415 69 73 71.9415 73 75.57C73 79.1985 75.9415 82.14 79.57 82.14Z" fill="black"/>
</svg>
