<svg width="48" height="48" viewBox="0 0 48 48" fill="none" xmlns="http://www.w3.org/2000/svg">
<path d="M16.517 20.722C16.074 21.762 15.848 22.882 15.852 24.012C15.852 28.475 19.427 32.203 23.898 32.203C25.028 32.203 26.103 31.961 27.078 31.524L31.057 35.595C28.759 36.423 26.335 36.845 23.892 36.843C12.192 36.843 4 27.04 4 24.01C4 22.27 6.684 18.32 11.182 15.263L16.517 20.722ZM43.781 24.01C43.781 25.744 41.151 29.698 36.667 32.758L31.271 27.234C31.697 26.242 31.931 25.151 31.931 24.012C31.931 19.432 28.333 15.822 23.898 15.822C22.815 15.82 21.742 16.037 20.746 16.462L16.802 12.424C19.075 11.602 21.475 11.182 23.892 11.182C35.742 11.182 43.781 20.972 43.781 24.01ZM24.487 28.874C24.294 28.902 24.097 28.914 23.897 28.914C21.253 28.914 19.112 26.721 19.112 24.01C19.112 23.808 19.124 23.61 19.15 23.415L24.487 28.874ZM28.672 24.01C28.672 24.19 28.662 24.369 28.642 24.544L23.376 19.153C23.546 19.133 23.721 19.123 23.898 19.123C26.542 19.123 28.672 21.304 28.672 24.01ZM35.209 37.229C35.661 37.707 36.379 37.731 36.856 37.229C37.319 36.762 37.319 36.009 36.856 35.542L12.075 10.188C11.635 9.722 10.88 9.722 10.413 10.188C9.976 10.638 9.976 11.427 10.413 11.875L35.209 37.229Z" fill="black"/>
</svg>
