<svg width="48" height="48" viewBox="0 0 48 48" fill="none" xmlns="http://www.w3.org/2000/svg">
<mask id="mask0_5_537" style="mask-type:luminance" maskUnits="userSpaceOnUse" x="4" y="4" width="40" height="40">
<path d="M44 4H4V44H44V4Z" fill="white"/>
</mask>
<g mask="url(#mask0_5_537)">
<path d="M43.2961 23.9939C43.2961 34.9318 34.41 43.9877 23.6464 43.9877C12.9019 43.9877 4 34.9318 4 23.9939C4 13.04 12.8863 4 23.6308 4C34.3942 4 43.2961 13.04 43.2961 23.9939ZM21.3177 31.7946C21.3177 33.0585 22.3751 34.0052 23.6532 34.0052C24.9279 34.0052 25.9787 33.0744 25.9787 31.7946C25.9787 30.5253 24.9435 29.5753 23.6532 29.5753C22.3596 29.5753 21.3177 30.5378 21.3177 31.7946ZM21.5965 15.7924L21.8643 25.5575C21.9004 26.7053 22.5341 27.3362 23.6532 27.3362C24.7308 27.3362 25.3613 26.7245 25.3973 25.5506L25.6807 15.8082C25.7169 14.6256 24.8446 13.7836 23.6308 13.7836C22.4048 13.7836 21.5604 14.6097 21.5965 15.7924Z" fill="black"/>
</g>
</svg>
