<svg width="48" height="48" viewBox="0 0 48 48" fill="none" xmlns="http://www.w3.org/2000/svg">
<mask id="mask0_319_5220" style="mask-type:luminance" maskUnits="userSpaceOnUse" x="4" y="7" width="40" height="34">
<path d="M44 7H4V41H44V7Z" fill="white"/>
</mask>
<g mask="url(#mask0_319_5220)">
<path d="M4.04039 33.4118C4.09714 34.1595 4.56671 34.5624 5.25743 34.5474C8.66072 34.4874 11.538 32.7761 14.05 29.6876C16.6445 32.4356 19.6325 34.113 22.766 34.905L22.2842 39.1696C22.1414 40.4378 22.8069 41.2042 24.1722 40.9523C27.7293 40.3688 31.7465 37.5264 33.8449 34.2534C39.0329 32.4758 43.7927 28.9681 43.7927 24.6823C43.7927 20.5263 39.3056 17.1047 34.2836 15.2656C32.4912 8.75665 24.5138 5.76647 18.8728 9.14365C18.1946 9.51956 18.095 10.1499 18.6469 10.9467C19.8915 12.7158 20.3088 13.7661 20.5592 15.1822C18.2174 16.123 16.0376 17.5904 14.05 19.6988C11.538 16.6007 8.66072 14.8921 5.25743 14.8294C4.56671 14.8144 4.09714 15.2173 4.04039 15.9676C3.74579 19.169 5.08997 22.6035 7.18385 24.6823C5.08997 26.7733 3.74579 30.2174 4.04039 33.4118ZM36.0422 25.6539C35.2094 25.6539 34.5066 24.8962 34.5066 23.9979C34.5066 23.0997 35.2094 22.3419 36.0422 22.3419C36.8865 22.3419 37.5892 23.0997 37.5892 23.9979C37.5892 24.8962 36.8865 25.6539 36.0422 25.6539Z" fill="black"/>
</g>
</svg>
