<svg width="48" height="48" viewBox="0 0 48 48" fill="none" xmlns="http://www.w3.org/2000/svg">
<path d="M23.8541 43.9876C34.7314 43.9876 43.7117 34.9318 43.7117 23.9938C43.7117 13.0399 34.7156 4 23.8384 4C12.9803 4 4 13.0399 4 23.9938C4 34.9318 12.996 43.9876 23.8541 43.9876ZM23.8541 40.0491C15.0069 40.0491 7.92674 32.9033 7.92674 23.9938C7.92674 15.0843 14.9911 7.9385 23.8384 7.9385C32.6856 7.9385 39.8007 15.0843 39.8007 23.9938C39.8007 32.9033 32.7014 40.0491 23.8541 40.0491Z" fill="black"/>
<path d="M21.7744 33.1948C22.4641 33.1948 23.0645 32.8503 23.4731 32.2119L32.0702 18.6887C32.3127 18.2703 32.5453 17.82 32.5453 17.3838C32.5453 16.4152 31.6934 15.7702 30.7893 15.7702C30.2257 15.7702 29.7037 16.1079 29.297 16.7458L21.708 29.0236L18.1359 24.4363C17.6643 23.8238 17.2103 23.6341 16.6306 23.6341C15.7038 23.6341 14.9569 24.3918 14.9569 25.3409C14.9569 25.8086 15.1368 26.229 15.4543 26.649L19.9988 32.2259C20.5139 32.8855 21.0779 33.1948 21.7744 33.1948Z" fill="black"/>
</svg>
