<svg width="128" height="128" viewBox="0 0 128 128" fill="none" xmlns="http://www.w3.org/2000/svg">
<path fill-rule="evenodd" clip-rule="evenodd" d="M31 0C36.5228 0 41 4.47715 41 10V13L87 13V10C87 4.47715 91.4772 0 97 0C102.523 0 107 4.47715 107 10V13L113 13C121.284 13 128 19.7157 128 28V37H0V28C0 19.7157 6.71573 13 15 13H21L21 10C21 4.47715 25.4772 0 31 0ZM0 50H128V113C128 121.284 121.284 128 113 128H15C6.71573 128 0 121.284 0 113V50ZM18 63C15.2386 63 13 65.2386 13 68V71C13 73.7614 15.2386 76 18 76H32C34.7614 76 37 73.7614 37 71V68C37 65.2386 34.7614 63 32 63H18ZM49 63C46.2386 63 44 65.2386 44 68V71C44 73.7614 46.2386 76 49 76H63C65.7614 76 68 73.7614 68 71V68C68 65.2386 65.7614 63 63 63H49ZM75 68C75 65.2386 77.2386 63 80 63H94C96.7614 63 99 65.2386 99 68V71C99 73.7614 96.7614 76 94 76H80C77.2386 76 75 73.7614 75 71V68ZM18 83C15.2386 83 13 85.2386 13 88V91C13 93.7614 15.2386 96 18 96H32C34.7614 96 37 93.7614 37 91V88C37 85.2386 34.7614 83 32 83H18Z" fill="black"/>
</svg>
