<svg width="48" height="48" viewBox="0 0 48 48" fill="none" xmlns="http://www.w3.org/2000/svg">
<path fill-rule="evenodd" clip-rule="evenodd" d="M8.5 4C6.01472 4 4 6.01472 4 8.5V39.5C4 41.9853 6.01472 44 8.5 44H39.5C41.9853 44 44 41.9853 44 39.5V8.5C44 6.01472 41.9853 4 39.5 4H8.5ZM8.5 8C7.67157 8 7 7.67157 7 8.5V39.5C7 40.3284 7.67157 40 8.5 40H38.5C39.3284 40 40 39.3284 40 38.5V9.5C40 8.67157 39.3284 8 38.5 8H8.5Z" fill="black"/>
<path fill-rule="evenodd" clip-rule="evenodd" d="M32.9261 13.6818L7 6V42H34V15.12C34 14.4557 33.5631 13.8705 32.9261 13.6818ZM30 30C31.1046 30 32 29.1046 32 28C32 26.8954 31.1046 26 30 26C28.8954 26 28 26.8954 28 28C28 29.1046 28.8954 30 30 30Z" fill="black"/>
</svg>
