<svg width="48" height="48" viewBox="0 0 48 48" fill="none" xmlns="http://www.w3.org/2000/svg">
<path d="M19.3072 44C20.4841 44 21.4125 43.4996 22.0576 42.497L43.3323 8.70571C43.809 7.94565 44 7.30963 44 6.68377C44 5.09583 42.9041 4 41.3293 4C40.212 4 39.5634 4.3828 38.8857 5.46665L19.2166 37.3042L9.08077 24.0258C8.42122 23.1357 7.72909 22.7631 6.75133 22.7631C5.13529 22.7631 4 23.9156 4 25.5077C4 26.1916 4.25078 26.8825 4.81526 27.5813L16.5418 42.5296C17.3226 43.5245 18.1669 44 19.3072 44Z" fill="black"/>
</svg>
