<svg width="48" height="48" viewBox="0 0 48 48" fill="none" xmlns="http://www.w3.org/2000/svg">
<path d="M35.5 23.998C35.4919 23.2298 35.2047 22.5678 34.5961 21.9821L16.9859 4.74198C16.473 4.24808 15.8617 4 15.1232 4C13.6689 4 12.5 5.14144 12.5 6.60914C12.5 7.32446 12.7912 7.98647 13.2954 8.5007L29.1941 23.9939L13.2954 39.4953C12.7953 40.0054 12.5 40.6529 12.5 41.3909C12.5 42.8546 13.6689 44 15.1232 44C15.8535 44 16.473 43.752 16.9859 43.2395L34.5961 26.0138C35.2088 25.4097 35.5 24.7621 35.5 23.998Z" fill="black"/>
</svg>
