<svg width="128" height="128" viewBox="0 0 128 128" fill="none" xmlns="http://www.w3.org/2000/svg">
<path d="M36 75.064C39.571 72.1152 43.6148 69.7188 48 68.0052L64 67L80 67.992C84.386 69.7024 88.4296 72.0968 92 75.0444L98 99L92 123H36L30 99L36 75.064Z" fill="#89CE00"/>
<path d="M64 80.4L51.52 89.16C50.04 90.2 48 89.16 48 87.32V68.0052C52.966 66.0648 58.3696 65 64.02 65C69.6576 65 75.0468 66.06 80 67.992V87.32C80 89.16 77.96 90.2 76.48 89.16L64 80.4Z" fill="#73BA00"/>
<path d="M92 75.0444V123H108V109C108 95.322 101.772 83.1116 92 75.0444Z" fill="#73BA00"/>
<path d="M36 123V75.064C26.2306 83.1312 20 95.3328 20 109V123H36Z" fill="#73BA00"/>
<path d="M67.5836 80.3828L65.0652 82.5988C64.4456 83.1336 63.5544 83.1336 62.9348 82.5988L60.4164 80.3828C57.6272 77.8992 56 74.3456 56 70.6396V58.8328C56.0388 54.5152 59.6028 51 64.0192 51C68.436 51 72 54.5152 72 58.8712V70.6776C71.9612 74.384 70.3728 77.8992 67.5836 80.3828Z" fill="#E6E6E6"/>
<path d="M64 76C59.5728 76 56 72.6896 56 68.5876V59.3764C56 55.3104 59.5728 52 64 52C68.4272 52 72 55.3104 72 59.4124V68.6236C71.9612 72.6896 68.3884 76 64 76Z" fill="#FCB100"/>
<path d="M47.24 42.3596C47.24 46.0488 44.2492 49.0396 40.56 49.0396C36.8708 49.0396 33.88 46.0488 33.88 42.3596C33.88 38.6704 36.8708 35.6797 40.56 35.6797C44.2492 35.6797 47.24 38.6704 47.24 42.3596Z" fill="#FDBB11"/>
<path d="M94.0001 49.92C94.8801 48.08 95.3601 46.04 95.3601 43.88C95.3601 41.04 94.5201 38.4 93.0401 36.2C91.5601 34 90.8001 31.4 90.8001 28.72V28.68C90.8001 21 84.5601 14.76 76.8801 14.76C76.1201 14.76 75.4001 14.4 74.9601 13.8C72.4801 10.28 68.3601 8 63.7201 8C59.0401 8 54.9201 10.28 52.4001 13.8C51.9601 14.44 51.2401 14.8 50.4801 14.8C42.8001 14.8 36.56 21.04 36.56 28.72V28.76C36.56 31.44 35.8 34 34.32 36.24C32.88 38.4 32 41.04 32 43.88C32 46.04 32.48 48.08 33.36 49.92C33.64 50.52 33.64 51.24 33.36 51.84C32.48 53.64 32 55.64 32 57.8C32 65.28 38.08 71.36 45.5601 71.36H81.7601C89.2401 71.36 95.3201 65.28 95.3201 57.8C95.3201 55.68 94.8401 53.64 93.9601 51.84C93.7201 51.24 93.7201 50.52 94.0001 49.92Z" fill="#F1A11E"/>
<path d="M63.6397 74.68C59.0797 74.68 55.3997 71 55.3997 66.44V56.2C55.3997 51.64 59.0797 47.96 63.6397 47.96C68.1997 47.96 71.8797 51.64 71.8797 56.2V66.44C71.8397 71 68.1597 74.68 63.6397 74.68Z" fill="#FCB100"/>
<path d="M51.6449 42.7604C51.6449 46.3612 48.7257 49.2804 45.1249 49.2804C41.5241 49.2804 38.605 46.3612 38.605 42.7604C38.605 39.1593 41.5241 36.2402 45.1249 36.2402C48.7257 36.2402 51.6449 39.1593 51.6449 42.7604Z" fill="#FDBB11"/>
<path d="M88.435 42.7604C88.435 46.3612 85.5158 49.2804 81.915 49.2804C78.3142 49.2804 75.395 46.3612 75.395 42.7604C75.395 39.1593 78.3142 36.2402 81.915 36.2402C85.5158 36.2402 88.435 39.1593 88.435 42.7604Z" fill="#FDBB11"/>
<path d="M63.6401 74.72C59.2129 74.72 55.6401 71.04 55.6401 66.48V56.24C55.6401 51.68 59.2129 48 63.6401 48C68.0673 48 71.6401 51.68 71.6401 56.24V66.48C71.6401 71.04 68.0673 74.72 63.6401 74.72Z" fill="#FCB100"/>
<path d="M80.2001 30.6398H66.8001C61.4801 30.6398 56.5201 27.9998 53.5201 23.6398C53.0001 22.9198 51.9201 23.0398 51.6001 23.8798L51.2801 24.6798C50.3441 26.9799 47.6881 28.937 45.8001 29.9598C44.8401 30.4798 42.5201 31.9998 42.4401 35.9998L43.0001 49.3596C43.4801 61.1996 52.6001 69.1196 63.6801 69.1196C74.7601 69.1196 83.8801 61.1996 84.3601 49.3596L84.8801 36.6398C84.8801 31.0398 80.9601 30.6398 80.2001 30.6398Z" fill="#FFC83D"/>
<path d="M52.6801 38.4004C55.0401 38.4004 57.0001 40.0404 58.2001 41.8804C57.2273 42.1736 56.2809 42.4444 55.3449 42.7128C53.4721 43.2492 51.6405 43.7736 49.7201 44.4404L47.7201 42.6404C46.9201 41.8804 46.9601 40.5204 47.8801 39.8804C49.2001 38.9204 51.0001 38.4004 52.6801 38.4004Z" fill="black"/>
<path d="M74.7201 38.4004C72.3601 38.4004 70.4001 40.0404 69.2001 41.8804C70.2429 42.1992 71.2597 42.4916 72.2713 42.7824C74.0525 43.2948 75.8177 43.8024 77.6801 44.4404L79.6801 42.6404C80.4801 41.8804 80.4401 40.5204 79.5201 39.8804C78.2001 38.9204 76.4001 38.4004 74.7201 38.4004Z" fill="black"/>
<path d="M47.6801 43.28C48.3201 40.72 50.6401 38.8398 53.4001 38.8398C56.2801 38.8398 58.6401 40.88 59.2001 43.6C59.3201 44.16 58.8401 44.72 58.2401 44.72H48.8401C48.0801 44.72 47.5201 44 47.6801 43.28Z" fill="white"/>
<path d="M79.6802 43.28C79.0402 40.72 76.7202 38.8398 73.9602 38.8398C71.1202 38.8398 68.7202 40.88 68.2002 43.6C68.0802 44.16 68.5602 44.72 69.1602 44.72H78.5602C79.2802 44.72 79.8802 44 79.6802 43.28Z" fill="white"/>
<path d="M50.5201 43.72C50.5201 41.64 52.2001 39.96 54.2801 39.96C56.3601 39.96 58.0401 41.64 58.0001 43.72C58.0001 44.08 57.9601 44.4 57.8801 44.72H50.6401C50.5601 44.4 50.5201 44.08 50.5201 43.72Z" fill="#7D4533"/>
<path d="M76.8801 43.72C76.8801 41.64 75.2001 39.96 73.1201 39.96C71.0401 39.96 69.3201 41.64 69.4001 43.72C69.4001 44.08 69.4401 44.4 69.5201 44.72H76.7601C76.8401 44.4 76.8801 44.08 76.8801 43.72Z" fill="#7D4533"/>
<path d="M54.2801 41.5596C55.4801 41.5596 56.4401 42.5196 56.4401 43.7196C56.4401 44.0796 56.3201 44.3996 56.1601 44.7196H52.3601C52.2001 44.3996 52.1201 44.0796 52.1201 43.7196C52.1201 42.5196 53.0801 41.5596 54.2801 41.5596Z" fill="black"/>
<path d="M73.1201 41.5596C71.9201 41.5596 70.9601 42.5196 70.9601 43.7196C70.9601 44.0796 71.0401 44.3996 71.2401 44.7196H75.0401C75.2001 44.3996 75.2801 44.0796 75.2801 43.7196C75.2801 42.5196 74.3201 41.5596 73.1201 41.5596Z" fill="black"/>
<path d="M53.6801 42.2396C53.6801 42.6152 53.3757 42.9196 53.0001 42.9196C52.6249 42.9196 52.3201 42.6152 52.3201 42.2396C52.3201 41.864 52.6249 41.5596 53.0001 41.5596C53.3757 41.5596 53.6801 41.864 53.6801 42.2396Z" fill="white"/>
<path d="M72.5202 42.2396C72.5202 42.6152 72.2158 42.9196 71.8402 42.9196C71.4646 42.9196 71.1602 42.6152 71.1602 42.2396C71.1602 41.864 71.4646 41.5596 71.8402 41.5596C72.2158 41.5596 72.5202 41.864 72.5202 42.2396Z" fill="white"/>
<path d="M63.6801 56.4C61.4801 56.4 59.4401 55.88 57.6801 54.96C57.0801 54.64 56.4801 55.32 56.8401 55.88C58.2801 58.12 60.8001 59.6 63.6801 59.6C66.5601 59.6 69.0801 58.12 70.5201 55.88C70.8801 55.32 70.2401 54.64 69.6801 54.96C67.9201 55.88 65.8801 56.4 63.6801 56.4Z" fill="#990839"/>
<path d="M62.1201 42.76L60.0001 49.68C59.5601 51.08 60.6401 52.52 62.1201 52.52H65.2801C66.7601 52.52 67.8401 51.08 67.4001 49.68L65.2401 42.76C64.7601 41.24 62.6001 41.24 62.1201 42.76Z" fill="#ED9200"/>
<path d="M78.0402 36.0801C78.2002 36.2001 78.4002 36.2401 78.6002 36.2401C79.0002 36.2401 79.3602 36.0401 79.5602 35.6401C79.8802 35.0801 79.7202 34.4001 79.1602 34.0801C79.0402 34.0001 75.3602 31.9601 71.1602 32.7201C70.5202 32.8401 70.1202 33.4401 70.2402 34.0401C70.3602 34.6801 70.9602 35.0801 71.5602 34.9601C74.6702 34.4112 77.4794 35.8038 77.9662 36.0452C78.0114 36.0676 78.0402 36.0801 78.0402 36.0801Z" fill="#D37034"/>
<path d="M47.7601 35.6801C48.0001 36.0401 48.3601 36.2401 48.7601 36.2401C48.9601 36.2401 49.1601 36.2001 49.2801 36.1201C49.3201 36.0801 52.3601 34.4001 55.7601 35.0001C56.3601 35.1201 56.9601 34.6801 57.0801 34.0801C57.2001 33.4801 56.7601 32.8801 56.1601 32.7601C52.1333 31.9931 48.6217 33.8732 48.1973 34.1003C48.1793 34.1101 48.1601 34.1201 48.1601 34.1201C47.6401 34.4401 47.4401 35.1201 47.7601 35.6801Z" fill="#D37034"/>
</svg>
