<svg width="128" height="128" viewBox="0 0 128 128" fill="none" xmlns="http://www.w3.org/2000/svg">
<path d="M89 21.16C87.8 19.08 85.92 17.64 83.84 16.92C81.56 16.16 79.56 14.64 78.32 12.6C76.64 9.84 73.6 8 70.16 8C68.84 8 67.56 8.28 66.44 8.76C64.88 9.44 63.12 9.44 61.56 8.76C60.4 8.28 59.16 8 57.84 8C54.44 8 51.44 9.76 49.76 12.44C48.44 14.52 46.48 16.12 44.12 16.92C41.92 17.68 40 19.24 38.8402 21.44C37.1202 24.64 37.4802 28.48 39.4402 31.32C40.12 32.36 40.52 33.6 40.52 34.84V51.52C40.52 55.24 42.88 58.52 46.4 59.76L53.96 62.36V32.68C54.56 32.12 55.04 31.44 55.48 30.68C56.16 29.52 56.56 28.24 56.68 27C57.04 27.04 57.44 27.08 57.8 27.08C60.16 27.08 62.32 26.24 63.96 24.8C65.64 26.2 67.76 27.08 70.12 27.08C70.52 27.08 70.88 27.04 71.24 27C71.4 28.28 71.76 29.52 72.44 30.68C72.88 31.44 73.4 32.08 73.96 32.68V62.4L81.52 59.8C85.04 58.6 87.4 55.28 87.4 51.56V34.88C87.4 33.64 87.8 32.4 88.52 31.36C90.6 28.4 90.88 24.44 89 21.16Z" fill="#F1A11E"/>
<path d="M51.0804 42.3596C51.0804 46.0488 48.0896 49.0396 44.4004 49.0396C40.7108 49.0396 37.7202 46.0488 37.7202 42.3596C37.7202 38.6704 40.7108 35.6797 44.4004 35.6797C48.0896 35.6797 51.0804 38.6704 51.0804 42.3596Z" fill="#FDBB11"/>
<path d="M90.24 42.3596C90.24 46.0488 87.2492 49.0396 83.56 49.0396C79.8708 49.0396 76.88 46.0488 76.88 42.3596C76.88 38.6704 79.8708 35.6797 83.56 35.6797C87.2492 35.6797 90.24 38.6704 90.24 42.3596Z" fill="#FDBB11"/>
<path d="M43 32.7525C43.3012 25.6721 49.3364 20 56.71 20H61.9408C63.0676 20 64.0336 20.6634 64.476 21.639C66.0856 25.1122 69.6668 27.2976 73.57 27.2976H79.3244C82.5436 27.4536 85.0788 30.0683 84.998 33.2292L84.95 35.2392L83.7104 54.5756C82.6236 62.2636 75.904 68 67.896 68H60.2508C52.2832 68 45.5232 62.2636 44.4768 54.5756L43 32.7525Z" fill="#FFC83D"/>
<path d="M64.002 54.8228C61.8 54.8228 59.7204 54.2676 57.9672 53.2848C57.3556 52.9432 56.744 53.6696 57.1108 54.2676C58.5788 56.6168 61.1068 58.1972 64.002 58.1972C66.8972 58.1972 69.4252 56.6168 70.8932 54.2676C71.2604 53.6696 70.608 52.986 70.0372 53.2848C68.2428 54.2676 66.204 54.8228 64.002 54.8228Z" fill="#990839"/>
<path d="M48.72 41.12C49.32 38.6398 51.56 36.7998 54.24 36.7998C57.04 36.7998 59.32 38.7598 59.84 41.4C59.96 42 59.52 42.52 58.92 42.52H49.8C49.08 42.52 48.52 41.8 48.72 41.12Z" fill="white"/>
<path d="M79.32 41.12C78.72 38.6398 76.48 36.7998 73.8 36.7998C71 36.7998 68.72 38.7598 68.2 41.4C68.08 42 68.52 42.52 69.12 42.52H78.24C78.96 42.52 79.48 41.84 79.32 41.12Z" fill="white"/>
<path d="M51.44 41.56C51.44 39.5599 53.08 37.9199 55.08 37.9199C57.12 37.9199 58.76 39.5599 58.72 41.56C58.72 41.88 58.68 42.2 58.6 42.52H51.56C51.48 42.2 51.44 41.88 51.44 41.56Z" fill="#7D4533"/>
<path d="M76.6 41.56C76.6 39.5599 74.96 37.9199 72.96 37.9199C70.92 37.9199 69.32 39.5599 69.32 41.56C69.32 41.88 69.36 42.2 69.44 42.52H76.48C76.56 42.2 76.6 41.88 76.6 41.56Z" fill="#7D4533"/>
<path d="M55.08 39.4805C56.24 39.4805 57.16 40.4004 57.16 41.5604C57.16 41.9204 57.08 42.2404 56.92 42.5204H53.24C53.08 42.2404 53 41.9204 53 41.5604C53 40.4004 53.92 39.4805 55.08 39.4805Z" fill="black"/>
<path d="M72.96 39.4805C71.8 39.4805 70.88 40.4004 70.88 41.5604C70.88 41.9204 70.96 42.2404 71.12 42.5204H74.8C74.96 42.2404 75.04 41.9204 75.04 41.5604C75.04 40.4004 74.12 39.4805 72.96 39.4805Z" fill="black"/>
<path d="M54.48 40.0796C54.48 40.4328 54.1936 40.7196 53.84 40.7196C53.4868 40.7196 53.2 40.4328 53.2 40.0796C53.2 39.726 53.4868 39.4395 53.84 39.4395C54.1936 39.4395 54.48 39.726 54.48 40.0796Z" fill="white"/>
<path d="M72.48 40.0796C72.48 40.4328 72.1936 40.7196 71.84 40.7196C71.4868 40.7196 71.2 40.4328 71.2 40.0796C71.2 39.726 71.4868 39.4395 71.84 39.4395C72.1936 39.4395 72.48 39.726 72.48 40.0796Z" fill="white"/>
<path d="M62.6164 41.1588L60.6332 48.1128C60.2216 49.536 61.1944 51 62.5788 51H65.4972C66.8816 51 67.8544 49.536 67.4428 48.1128L65.46 41.1588C65.0484 39.6137 63.0652 39.6137 62.6164 41.1588Z" fill="#ED9200"/>
<path d="M49.3804 33.707C49.5664 33.8394 49.7892 33.9104 50.0176 33.9101C50.2648 33.9087 50.5044 33.8242 50.6976 33.6701C52.4648 32.4976 54.5924 31.9941 56.6976 32.2501C56.84 32.2684 56.9844 32.2579 57.1224 32.2192C57.2604 32.1805 57.3892 32.1144 57.5012 32.0248C57.6132 31.9352 57.706 31.824 57.7744 31.6977C57.8424 31.5715 57.8844 31.4329 57.8976 31.2901C57.9268 31.0047 57.8432 30.7192 57.6644 30.4949C57.486 30.2705 57.2264 30.1252 56.9416 30.0901C54.2652 29.7431 51.5552 30.4062 49.3416 31.9501C49.1616 32.0905 49.03 32.2838 48.9652 32.5028C48.9 32.7217 48.9052 32.9555 48.98 33.1714C49.0544 33.3873 49.1944 33.5745 49.3804 33.707Z" fill="#D37034"/>
<path d="M77.3856 33.6861C77.5764 33.8312 77.8096 33.9098 78.0496 33.9101C78.278 33.9118 78.5056 33.8418 78.692 33.7099C78.8788 33.578 79.0192 33.3908 79.094 33.1748C79.1684 32.9588 79.1736 32.7248 79.1084 32.5058C79.0428 32.2868 78.9104 32.0939 78.7296 31.9541C76.5132 30.4156 73.806 29.7516 71.1296 30.0901C70.8476 30.1319 70.5932 30.2818 70.42 30.5082C70.2468 30.7344 70.1684 31.0193 70.202 31.3023C70.2352 31.5853 70.3772 31.8442 70.5984 32.0242C70.8192 32.2041 71.1016 32.2909 71.3856 32.2661C73.4912 32.0058 75.62 32.5097 77.3856 33.6861Z" fill="#D37034"/>
<path d="M8.328 114.44C10.488 109.48 15.408 106 21.168 106C26.968 106 31.928 109.52 34.088 114.56C35.168 117.16 33.208 120 30.408 120H11.968C9.088 120 7.208 117.08 8.328 114.44Z" fill="#FFC83D"/>
<path d="M93.968 114.44C96.128 109.48 101.048 106 106.808 106C112.608 106 117.568 109.52 119.728 114.56C120.808 117.16 118.848 120 116.048 120H97.608C94.728 120 92.848 117.08 93.968 114.44Z" fill="#FFC83D"/>
<path d="M104.128 64H23.8878C21.7678 64 20.0078 65.72 20.0078 67.88V120H108.008V67.88C108.008 65.72 106.248 64 104.128 64Z" fill="#A999BE"/>
<path d="M57.776 87.5636C57.776 87.0112 58.2236 86.5636 58.776 86.5636H69.2164C69.7684 86.5636 70.2164 87.0112 70.2164 87.5636V97.2264C70.2164 97.7788 69.7684 98.2264 69.2164 98.2264H58.776C58.2236 98.2264 57.776 97.7788 57.776 97.2264V87.5636Z" fill="#533566"/>
</svg>
