<?xml version="1.0" encoding="UTF-8"?><svg id="_레이어_2" xmlns="http://www.w3.org/2000/svg" viewBox="0 0 102.41 28.34"><g id="_레이어_1-2"><path d="m7.15,22.63h1.62c1.85,0,3.18-.24,3.98-.71.8-.48,1.2-1.24,1.2-2.29s-.4-1.82-1.2-2.29c-.8-.48-2.13-.71-3.98-.71h-1.62v6.01Zm0-11.5h1.35c2.3,0,3.46-.91,3.46-2.74s-1.15-2.74-3.46-2.74h-1.35v5.49ZM0,0h10.97C13.58,0,15.55.64,16.91,1.89c1.35,1.25,2.03,3.06,2.03,5.41,0,1.43-.26,2.62-.79,3.57-.5.93-1.28,1.72-2.33,2.37,1.05.2,1.94.51,2.67.94.75.4,1.35.9,1.8,1.5.48.6.81,1.28,1.01,2.03s.3,1.55.3,2.4c0,1.33-.24,2.5-.71,3.53-.45,1.03-1.1,1.89-1.95,2.59-.83.7-1.84,1.23-3.04,1.58-1.2.35-2.55.53-4.06.53H0V0Zm24.9,6.24h-4.13V0h11.5v28.33h-7.36V6.25Zm10.66,22.09V0h7.36l13.6,17.32V0h7.33v28.33h-7.33l-13.6-17.32v17.32h-7.36Z"/><path d="m84.94,22.09h1.69c1.28,0,2.42-.2,3.42-.6,1-.4,1.84-.95,2.52-1.65.7-.7,1.23-1.53,1.58-2.48.38-.98.56-2.04.56-3.19s-.19-2.18-.56-3.16c-.38-.98-.91-1.82-1.62-2.52-.68-.7-1.52-1.25-2.52-1.65-1-.4-2.13-.6-3.38-.6h-1.69v15.85ZM77.58,0h10.9c1.93,0,3.73.39,5.41,1.16,1.7.78,3.18,1.82,4.43,3.12,1.28,1.28,2.28,2.78,3.01,4.51.73,1.7,1.09,3.49,1.09,5.37s-.36,3.64-1.09,5.37c-.7,1.7-1.69,3.21-2.97,4.51-1.25,1.3-2.73,2.34-4.43,3.12-1.68.78-3.49,1.16-5.45,1.16h-10.9V0Z"/><path d="m67.14,11.28c0-.6.11-1.16.34-1.69.23-.55.54-1.03.94-1.43.4-.4.86-.71,1.39-.94.55-.23,1.13-.34,1.73-.34s1.16.11,1.69.34c.55.23,1.03.54,1.43.94.4.4.71.88.94,1.43.23.53.34,1.09.34,1.69s-.11,1.18-.34,1.73c-.23.53-.54.99-.94,1.39-.4.4-.88.71-1.43.94-.53.23-1.09.34-1.69.34s-1.18-.11-1.73-.34c-.53-.23-.99-.54-1.39-.94-.4-.4-.71-.86-.94-1.39-.23-.55-.34-1.13-.34-1.73Z"/><path d="m67.14,23.94c0-.6.11-1.16.34-1.69.23-.55.54-1.03.94-1.43s.86-.71,1.39-.94c.55-.23,1.13-.34,1.73-.34s1.16.11,1.69.34c.55.23,1.03.54,1.43.94s.71.88.94,1.43c.23.53.34,1.09.34,1.69s-.11,1.18-.34,1.73c-.23.53-.54.99-.94,1.39-.4.4-.88.71-1.43.94-.53.23-1.09.34-1.69.34s-1.18-.11-1.73-.34c-.53-.23-.99-.54-1.39-.94-.4-.4-.71-.86-.94-1.39-.23-.55-.34-1.13-.34-1.73Z"/></g></svg>