<svg width="48" height="48" viewBox="0 0 48 48" fill="none" xmlns="http://www.w3.org/2000/svg">
<path fill-rule="evenodd" clip-rule="evenodd" d="M13 4C11.3431 4 10 5.34315 10 7V8H8.5C6.01472 8 4 10.0147 4 12.5V16H44V12.5C44 10.0147 41.9853 8 39.5 8H38V7C38 5.34315 36.6569 4 35 4C33.3431 4 32 5.34315 32 7V8H16V7C16 5.34315 14.6569 4 13 4ZM44 19H4V39.5C4 41.9853 6.01472 44 8.5 44H39.5C41.9853 44 44 41.9853 44 39.5V19ZM8 24.5C8 23.6716 8.67157 23 9.5 23H14.5C15.3284 23 16 23.6716 16 24.5V25.5C16 26.3284 15.3284 27 14.5 27H9.5C8.67157 27 8 26.3284 8 25.5V24.5ZM19.5 23C18.6716 23 18 23.6716 18 24.5V25.5C18 26.3284 18.6716 27 19.5 27H24.5C25.3284 27 26 26.3284 26 25.5V24.5C26 23.6716 25.3284 23 24.5 23H19.5ZM28 24.5C28 23.6716 28.6716 23 29.5 23H34.5C35.3284 23 36 23.6716 36 24.5V25.5C36 26.3284 35.3284 27 34.5 27H29.5C28.6716 27 28 26.3284 28 25.5V24.5ZM9.5 29C8.67157 29 8 29.6716 8 30.5V31.5C8 32.3284 8.67157 33 9.5 33H14.5C15.3284 33 16 32.3284 16 31.5V30.5C16 29.6716 15.3284 29 14.5 29H9.5Z" fill="black"/>
</svg>
