<svg width="128" height="128" viewBox="0 0 128 128" fill="none" xmlns="http://www.w3.org/2000/svg">
<path fill-rule="evenodd" clip-rule="evenodd" d="M95.5 6.5C95.5 2.91015 98.4101 0 102 0C105.59 0 108.5 2.91015 108.5 6.5V20.5H121.5C125.09 20.5 128 23.4101 128 27C128 30.5899 125.09 33.5 121.5 33.5H108.5V46.5C108.5 50.0899 105.59 53 102 53C98.4101 53 95.5 50.0899 95.5 46.5V33.5H81.5C77.9101 33.5 75 30.5898 75 27C75 23.4101 77.9101 20.5 81.5 20.5H95.5V6.5ZM112.703 100.21C99.9825 105.508 85.6782 105.537 72.9368 100.289C60.1954 95.0404 50.0607 84.9456 44.7621 72.2249C39.4634 59.5042 39.435 45.1996 44.683 32.4579C49.931 19.7162 60.0256 9.58126 72.746 4.28253C73.5608 3.89287 74.5526 3.4855 75.5444 3.07812C76.5363 2.67075 77.5281 2.26338 78.3428 1.87372C65.5761 -1.45188 52.0573 -0.327366 40.0154 5.06184C32.1555 8.21596 25.0026 12.9044 18.9745 18.8533C12.9464 24.8023 8.16386 31.8926 4.90605 39.7103C1.64825 47.528 -0.0195019 55.9164 0.000172055 64.3857C0.019846 72.855 1.72655 81.2356 5.02064 89.038C8.31473 96.8405 13.1302 103.909 19.1859 109.829C25.2415 115.75 32.4161 120.405 40.2906 123.523C48.1651 126.641 56.5818 128.158 65.0492 127.987C73.5166 127.816 81.8651 125.96 89.6073 122.526C102.62 117.311 113.381 107.679 120 95.3211C117.767 97.2304 115.318 98.8711 112.703 100.21Z" fill="black"/>
</svg>
