<svg width="48" height="48" viewBox="0 0 48 48" fill="none" xmlns="http://www.w3.org/2000/svg">
<mask id="mask0_5_515" style="mask-type:luminance" maskUnits="userSpaceOnUse" x="4" y="8" width="40" height="32">
<path d="M44 8H4V40H44V8Z" fill="white"/>
</mask>
<g mask="url(#mask0_5_515)">
<path d="M4 23.9675C4 24.5907 4.27325 25.195 4.7446 25.6463L18.4385 39.2239C18.9286 39.6974 19.473 39.9312 20.0573 39.9312C21.3438 39.9312 22.2956 39.0179 22.2956 37.7751C22.2956 37.1354 22.034 36.5624 21.6233 36.1751L16.9722 31.4988L9.23543 24.4802L8.49665 25.7989L15.6798 26.2188H40.941C42.3047 26.2188 43.2318 25.2961 43.2318 23.9675C43.2318 22.6388 42.3047 21.7161 40.941 21.7161H15.6798L8.49665 22.136L9.23543 23.4754L16.9722 16.4362L21.6233 11.7561C22.034 11.3482 22.2956 10.7958 22.2956 10.1561C22.2956 8.91325 21.3438 8 20.0573 8C19.473 8 18.9286 8.21697 18.4045 8.74124L4.7446 22.2886C4.27325 22.7399 4 23.3442 4 23.9675Z" fill="black"/>
</g>
</svg>
