<svg width="48" height="48" viewBox="0 0 48 48" fill="none" xmlns="http://www.w3.org/2000/svg">
<path d="M15.0755 44C17.3182 44 18.7008 43.1547 18.6753 41.7162L18.1573 22.5132C18.1527 21.8316 18.5115 21.4214 19.3507 21.1659C22.8192 20.1311 24.3473 19.0423 24.1464 15.9088L23.4201 5.52731C23.3601 4.72671 22.6619 4.26642 21.55 4.26642C20.4798 4.26642 19.8279 4.74976 19.8372 5.56426L20.0199 15.6393C20.029 16.2537 19.4692 16.6327 18.625 16.6327C17.7507 16.6327 17.1584 16.2738 17.1538 15.6871L16.8902 5.24395C16.8647 4.46945 16.1828 4 15.0755 4C13.9682 4 13.3072 4.46945 13.2817 5.24395L13.0227 15.6871C13.0181 16.2677 12.4212 16.6327 11.5469 16.6327C10.7027 16.6327 10.1221 16.2537 10.1267 15.6393L10.3185 5.56426C10.3231 4.74976 9.69664 4.26642 8.60561 4.26642C7.4937 4.26642 6.79093 4.72976 6.73089 5.52731L6.021 15.9088C5.79912 19.0423 7.33188 20.1311 10.805 21.1659C11.6441 21.4214 11.9983 21.8316 11.9937 22.5132L11.4966 41.7162C11.462 43.1577 12.842 44 15.0755 44ZM35.298 29.0051L34.8003 41.6467C34.7285 43.1577 36.1458 44 38.3584 44C40.6265 44 42 43.2133 42 41.8026V5.31988C42 4.4464 41.114 4 40.1201 4C39.1304 4 38.4714 4.3481 37.6343 5.15684C33.4828 9.02665 30.6346 16.4944 30.6346 23.2582V24.1618C30.6346 25.377 31.257 26.2291 32.6711 26.8525L34.0212 27.4633C34.9601 27.893 35.3443 28.3462 35.298 29.0051Z" fill="black"/>
</svg>
