<svg width="48" height="48" viewBox="0 0 48 48" fill="none" xmlns="http://www.w3.org/2000/svg">
<g clip-path="url(#clip0_5_508)">
<path fill-rule="evenodd" clip-rule="evenodd" d="M38.0625 4C36.3438 4 34.9375 5.40625 34.9375 7.125V40.875C34.9375 42.5938 36.3438 44 38.0625 44C39.7812 44 41.1875 42.5938 41.1875 40.875V29.3094C42.875 28.2156 44 26.3406 44 24.1844C44 22.0281 42.875 20.0906 41.1875 19.0281V7.125C41.1875 5.40625 39.7812 4 38.0625 4ZM17.4062 33.375H15.5625V42.4375C15.5625 43.3125 14.875 44 14 44H9.625C8.75 44 8.0625 43.3125 8.0625 42.4375V33.3339C5.76553 33.0295 4 31.0693 4 28.6875V19.3125C4 16.7188 6.09375 14.625 8.6875 14.625H17.4062C18.0625 14.625 18.6875 14.5 19.2812 14.25L32.75 8.375V39.625L19.2812 33.75C18.6875 33.5 18.0625 33.375 17.4062 33.375Z" fill="black"/>
</g>
<defs>
<clipPath id="clip0_5_508">
<rect width="48" height="48" fill="white"/>
</clipPath>
</defs>
</svg>
