<svg width="48" height="48" viewBox="0 0 48 48" fill="none" xmlns="http://www.w3.org/2000/svg">
<path d="M24.7551 44C33.3939 44 40.5399 39.5247 43.72 32.0562C44.132 31.0834 44.0897 30.2449 43.5909 29.7616C43.177 29.3477 42.4037 29.293 41.5838 29.6185C39.639 30.4116 37.3334 30.8487 34.7497 30.8487C24.3044 30.8487 17.4772 24.2574 17.4772 14.1082C17.4772 11.4381 18.0165 8.43977 18.8625 6.70079C19.3211 5.74467 19.3043 4.93948 18.8732 4.45619C18.4188 3.9265 17.5756 3.85288 16.5209 4.2626C9.05549 7.21193 4 14.9036 4 23.5889C4 35.2647 12.655 44 24.7551 44Z" fill="black"/>
<path d="M36.75 5.75C36.75 4.7835 35.9665 4 35 4C34.0335 4 33.25 4.7835 33.25 5.75V16.25C33.25 17.2165 34.0335 18 35 18C35.9665 18 36.75 17.2165 36.75 16.25V5.75Z" fill="black"/>
<path d="M40.25 12.75C41.2165 12.75 42 11.9665 42 11C42 10.0335 41.2165 9.25 40.25 9.25H29.75C28.7835 9.25 28 10.0335 28 11C28 11.9665 28.7835 12.75 29.75 12.75H40.25Z" fill="black"/>
</svg>
