<svg width="128" height="128" viewBox="0 0 128 128" fill="none" xmlns="http://www.w3.org/2000/svg">
<path d="M125.83 1.48476C124.453 0.308509 122.634 -0.206991 120.84 0.0760091L42.3887 12.463C39.3787 12.9383 37.1615 15.533 37.1615 18.5805V43.3548V82.5805H24.7742C11.1137 82.5807 0 92.7682 0 105.29C0 117.812 11.1137 128 24.7742 128C38.4347 128 49.5485 117.812 49.5485 105.29V88.774V48.647L115.613 38.2158V72.258H103.226C89.5655 72.258 78.4517 82.4455 78.4517 94.9678C78.4517 107.49 89.5655 117.677 103.226 117.677C116.886 117.677 128 107.49 128 94.9678V78.4515V30.9678V6.19351C128 4.38226 127.207 2.66151 125.83 1.48476Z" fill="black"/>
</svg>
