<svg width="48" height="48" viewBox="0 0 48 48" fill="none" xmlns="http://www.w3.org/2000/svg">
<path fill-rule="evenodd" clip-rule="evenodd" d="M8.5 4C6.01472 4 4 6.01472 4 8.5V35.5C4 37.9853 6.01472 40 8.5 40H9V41C9 42.6569 10.3431 44 12 44H13C14.6569 44 16 42.6569 16 41V40H32V41C32 42.6569 33.3431 44 35 44H36C37.6569 44 39 42.6569 39 41V40H39.5C41.9853 40 44 37.9853 44 35.5V8.5C44 6.01472 41.9853 4 39.5 4H8.5ZM11 10C9.34315 10 8 11.3431 8 13V23C8 24.6569 9.34315 26 11 26H37C38.6569 26 40 24.6569 40 23V13C40 11.3431 38.6569 10 37 10H11ZM8 34.5C8 35.3284 8.67157 36 9.5 36H14.5C15.3284 36 16 35.3284 16 34.5V33.5C16 32.6716 15.3284 32 14.5 32H9.5C8.67157 32 8 32.6716 8 33.5V34.5ZM33.5 36C32.6716 36 32 35.3284 32 34.5V33.5C32 32.6716 32.6716 32 33.5 32H38.5C39.3284 32 40 32.6716 40 33.5V34.5C40 35.3284 39.3284 36 38.5 36H33.5Z" fill="black"/>
</svg>
