<svg width="48" height="48" viewBox="0 0 48 48" fill="none" xmlns="http://www.w3.org/2000/svg">
<path d="M43.3218 4.46399C42.8916 4.09641 42.3231 3.93532 41.7626 4.02375L17.2465 7.89469C16.3059 8.04321 15.613 8.85406 15.613 9.80641V17.5484V29.8064H11.742C7.47305 29.8065 4 32.9901 4 36.9032C4 40.8164 7.47305 44 11.742 44C16.0109 44 19.4839 40.8164 19.4839 36.9032V31.7419V19.2022L40.1291 15.9424V26.5806H36.2581C31.9892 26.5806 28.5162 29.7642 28.5162 33.6774C28.5162 37.5906 31.9892 40.7742 36.2581 40.7742C40.527 40.7742 44 37.5905 44 33.6774V28.5161V13.6774V5.93547C44 5.36946 43.7521 4.83172 43.3218 4.46399Z" fill="black"/>
</svg>
