<svg width="48" height="48" viewBox="0 0 48 48" fill="none" xmlns="http://www.w3.org/2000/svg">
<mask id="mask0_5_521" style="mask-type:luminance" maskUnits="userSpaceOnUse" x="4" y="11" width="40" height="25">
<path d="M44 11H4V36H44V11Z" fill="white"/>
</mask>
<g mask="url(#mask0_5_521)">
<path d="M23.8924 35.9998C35.7546 35.9998 43.7806 26.4575 43.7806 23.5097C43.7806 20.5526 35.7425 11.0249 23.8924 11.0249C12.1922 11.0249 4 20.5526 4 23.5097C4 26.4575 12.1922 35.9998 23.8924 35.9998ZM23.8976 31.4838C19.4267 31.4838 15.8522 27.8554 15.8522 23.5124C15.8522 19.0526 19.4267 15.5409 23.8976 15.5409C28.3326 15.5409 31.931 19.0553 31.931 23.5124C31.931 27.8554 28.3326 31.4838 23.8976 31.4838ZM23.8924 26.4797C25.5394 26.4797 26.8955 25.1397 26.8955 23.5176C26.8955 21.8809 25.5394 20.5357 23.8924 20.5357C22.2385 20.5357 20.8878 21.8809 20.8878 23.5176C20.8878 25.1397 22.2385 26.4797 23.8924 26.4797Z" fill="black"/>
</g>
</svg>
